<svg xmlns="http://www.w3.org/2000/svg" xmlns:xlink="http://www.w3.org/1999/xlink" width="1260" zoomAndPan="magnify" viewBox="120 360 1260 690" height="690" preserveAspectRatio="xMidYMid meet" version="1.0"><defs><g/><clipPath id="bf71d2f15f"><path d="M 599 433 L 911 433 L 911 854.691406 L 599 854.691406 Z M 599 433 " clip-rule="nonzero"/></clipPath><clipPath id="7d5f0656fd"><path d="M 427 493.289062 L 754.457031 493.289062 L 754.457031 854.789062 L 427 854.789062 Z M 427 493.289062 " clip-rule="nonzero"/></clipPath><clipPath id="d56687f1e1"><path d="M 1 2 L 327.433594 2 L 327.433594 361 L 1 361 Z M 1 2 " clip-rule="nonzero"/></clipPath><clipPath id="1dbe14219b"><rect x="0" width="328" y="0" height="362"/></clipPath><clipPath id="650d861c19"><path d="M 493 464 L 535 464 L 535 475 L 493 475 Z M 493 464 " clip-rule="nonzero"/></clipPath><clipPath id="9390a007f2"><path d="M 472.929688 393.214844 L 568.308594 507.035156 L 487.253906 574.957031 L 391.875 461.136719 Z M 472.929688 393.214844 " clip-rule="nonzero"/></clipPath><clipPath id="83a49792c9"><path d="M 472.929688 393.214844 L 568.308594 507.035156 L 487.253906 574.957031 L 391.875 461.136719 Z M 472.929688 393.214844 " clip-rule="nonzero"/></clipPath><clipPath id="388c15b28c"><path d="M 490 432 L 506 432 L 506 472 L 490 472 Z M 490 432 " clip-rule="nonzero"/></clipPath><clipPath id="87b705b876"><path d="M 472.929688 393.214844 L 568.308594 507.035156 L 487.253906 574.957031 L 391.875 461.136719 Z M 472.929688 393.214844 " clip-rule="nonzero"/></clipPath><clipPath id="838d85dfb9"><path d="M 472.929688 393.214844 L 568.308594 507.035156 L 487.253906 574.957031 L 391.875 461.136719 Z M 472.929688 393.214844 " clip-rule="nonzero"/></clipPath><clipPath id="e49938b706"><path d="M 416 396 L 566 396 L 566 548 L 416 548 Z M 416 396 " clip-rule="nonzero"/></clipPath><clipPath id="67d4d90d66"><path d="M 472.929688 393.214844 L 568.308594 507.035156 L 487.253906 574.957031 L 391.875 461.136719 Z M 472.929688 393.214844 " clip-rule="nonzero"/></clipPath><clipPath id="1b38f68d89"><path d="M 472.929688 393.214844 L 568.308594 507.035156 L 487.253906 574.957031 L 391.875 461.136719 Z M 472.929688 393.214844 " clip-rule="nonzero"/></clipPath><clipPath id="f1193e2b4a"><path d="M 453 468 L 497 468 L 497 505 L 453 505 Z M 453 468 " clip-rule="nonzero"/></clipPath><clipPath id="2325f8fd1f"><path d="M 472.929688 393.214844 L 568.308594 507.035156 L 487.253906 574.957031 L 391.875 461.136719 Z M 472.929688 393.214844 " clip-rule="nonzero"/></clipPath><clipPath id="e0188cdfc4"><path d="M 472.929688 393.214844 L 568.308594 507.035156 L 487.253906 574.957031 L 391.875 461.136719 Z M 472.929688 393.214844 " clip-rule="nonzero"/></clipPath></defs><path fill="#e1c1a7" d="M 622.78125 568.152344 C 622.351562 591.015625 635.304688 609.246094 649.246094 626.921875 C 657.097656 637.214844 664.261719 648.585938 672.027344 658.578125 C 695.492188 691.484375 726.851562 673.292969 754.476562 654.804688 C 769.0625 645.925781 784.117188 640.21875 799.046875 631.167969 C 810.714844 624.003906 823.714844 617.699219 834.78125 609.117188 C 884.800781 567.722656 866.78125 493.378906 807.796875 471.460938 C 764.898438 455.328125 714.28125 464.894531 674.902344 486.988281 C 646.972656 504.148438 621.878906 533.1875 622.738281 567.59375 L 622.738281 568.109375 Z M 622.78125 568.152344 " fill-opacity="1" fill-rule="nonzero"/><g clip-path="url(#bf71d2f15f)"><path fill="#693e26" d="M 899.515625 625.632812 C 879.394531 609.890625 877.464844 602.039062 882.441406 555.410156 C 882.527344 554.59375 882.570312 553.695312 882.570312 552.878906 C 881.96875 512.683594 866.910156 480.425781 839.070312 459.578125 C 797.71875 428.691406 740.535156 429.460938 700.8125 440.488281 C 700.726562 440.488281 700.640625 440.53125 700.554688 440.574219 C 638.566406 465.023438 604.761719 500.757812 600 546.832031 C 597.597656 570.253906 609.308594 598.523438 628.570312 615.597656 C 642.898438 628.335938 659.929688 633.269531 676.53125 629.539062 C 677.988281 629.195312 678.933594 627.734375 678.589844 626.277344 C 678.246094 624.820312 676.789062 623.875 675.328125 624.21875 C 656.28125 628.464844 641.355469 619.671875 632.175781 611.519531 C 614.457031 595.777344 603.21875 568.792969 605.40625 547.386719 C 609.953125 503.546875 642.597656 469.355469 702.398438 445.71875 C 750.699219 432.335938 803.035156 439.5 835.765625 463.996094 C 862.578125 484.070312 876.476562 514.015625 877.078125 552.964844 C 877.078125 553.566406 877.078125 554.210938 876.992188 554.851562 C 871.84375 603.113281 874.375 612.9375 896.253906 630.050781 C 902.386719 634.300781 905.648438 639.960938 904.789062 644.808594 C 904.191406 648.328125 901.445312 650.902344 896.941406 652.144531 C 887.546875 655.277344 882.011719 660.039062 880.511719 666.300781 C 878.152344 676.082031 886.6875 685.476562 888.359375 687.191406 C 888.746094 687.621094 888.875 688.007812 888.789062 688.523438 C 888.703125 689.125 888.316406 689.722656 887.84375 690.023438 C 882.613281 693.371094 880.851562 699.03125 883.125 705.125 C 883.769531 706.839844 883.769531 707.054688 880.640625 708.726562 C 879.265625 709.457031 877.722656 710.316406 876.347656 711.601562 C 871.328125 716.363281 872.101562 719.839844 873.003906 723.828125 C 873.261719 724.898438 873.519531 726.101562 873.773438 727.816406 C 876.046875 737.253906 875.621094 744.03125 872.488281 747.894531 C 870 750.980469 865.625 752.441406 859.40625 752.3125 C 818.910156 748.75 789.179688 749.265625 774.980469 788.21875 C 774.765625 788.816406 774.550781 789.503906 774.378906 790.105469 L 773.695312 792.636719 C 769.363281 808.894531 766.488281 819.617188 778.285156 837.894531 C 778.929688 838.792969 779.097656 839.308594 777.855469 840.382812 C 762.625 853.464844 637.109375 851.878906 618.148438 833.730469 C 616.171875 831.84375 616.085938 830.34375 617.890625 828.027344 C 650.148438 780.195312 651.050781 767.539062 654.09375 725.671875 C 654.523438 720.050781 654.953125 713.875 655.511719 707.011719 C 656.324219 695.085938 653.964844 682.171875 648.476562 668.660156 C 648.046875 667.632812 647.53125 666.34375 646.886719 664.800781 C 646.117188 662.914062 645.171875 660.640625 644.101562 658.023438 C 641.269531 651.074219 644.355469 645.324219 648.21875 642.234375 C 651.90625 639.277344 658.46875 637.386719 664.691406 641.765625 C 675.371094 649.269531 693.175781 661.796875 706.816406 652.832031 C 710.847656 650.214844 713.722656 645.839844 714.882812 640.519531 C 718.441406 624.691406 703.8125 620.613281 692.015625 617.3125 C 686.3125 615.726562 680.390625 614.09375 677.003906 611.390625 C 671.984375 607.402344 671.382812 600.152344 671.554688 595.648438 C 680.046875 596.121094 691.929688 595.734375 698.539062 590.757812 C 706.601562 584.710938 706.730469 575.445312 702.699219 569.4375 C 698.75 563.519531 690.042969 559.828125 680.21875 565.621094 C 673.957031 569.351562 668.550781 579.21875 666.707031 589.773438 C 666.277344 589.730469 665.890625 589.6875 665.464844 589.644531 C 658.726562 588.828125 649.203125 585.222656 644.398438 577.804688 C 640.882812 572.355469 640.410156 565.535156 642.898438 557.511719 C 645.6875 548.589844 650.535156 541.339844 656.410156 537.179688 C 656.667969 539.539062 657.269531 541.855469 658.386719 543.957031 C 660.316406 547.6875 663.53125 550.21875 667.78125 551.292969 C 671.855469 552.191406 675.800781 550.820312 678.289062 547.644531 C 680.863281 544.386719 681.292969 540.011719 679.449219 536.320312 C 677.902344 532.976562 675.070312 530.53125 671.296875 529.328125 C 668.507812 528.425781 665.378906 528.257812 662.332031 528.726562 C 662.632812 527.441406 663.019531 526.195312 663.445312 525.039062 C 669.066406 509.253906 680.949219 499.472656 698.707031 495.953125 C 699.265625 495.867188 699.824219 495.824219 700.382812 495.78125 C 699.480469 497.542969 698.921875 499.300781 698.664062 501.058594 C 697.851562 505.21875 699.222656 510.066406 702.183594 513.414062 C 704.757812 516.332031 708.1875 517.789062 711.792969 517.53125 C 715.824219 517.1875 719.042969 514.828125 720.628906 511.097656 C 722.515625 506.636719 721.746094 501.144531 718.785156 497.542969 C 716.855469 494.925781 714.109375 492.992188 710.804688 491.75 C 723.546875 481.195312 748.984375 475.40625 764.085938 481.667969 C 757.609375 485.445312 753.488281 491.105469 752.890625 497.15625 C 752.375 501.101562 753.574219 505.046875 756.148438 508.050781 C 758.59375 510.839844 761.984375 512.425781 765.585938 512.425781 C 765.714844 512.425781 765.886719 512.425781 766.015625 512.425781 C 773.652344 512.425781 780.558594 506.121094 781.246094 498.527344 C 781.84375 493.121094 779.65625 487.417969 775.496094 482.914062 C 789.78125 479.351562 806.46875 484.113281 815.992188 495.097656 C 812.773438 495.695312 809.8125 496.941406 807.242188 498.742188 C 802.4375 501.875 799.519531 507.023438 799.390625 512.511719 C 799.304688 517.488281 801.578125 521.992188 805.695312 524.910156 C 809.558594 527.613281 814.148438 528.257812 818.351562 526.667969 C 822.769531 524.953125 826.117188 521.007812 827.1875 516.203125 C 828.433594 511.269531 827.960938 505.863281 825.902344 500.714844 C 826.5 500.84375 827.101562 501.015625 827.703125 501.230469 C 839.113281 505.003906 847.734375 514.398438 851.425781 527.011719 C 855.242188 540.011719 852.882812 553.480469 845.121094 563.003906 C 844.863281 563.304688 844.648438 563.605469 844.390625 563.859375 C 842.929688 556.65625 837.355469 550.820312 830.75 549.617188 C 826.628906 548.675781 822.039062 549.617188 818.4375 552.148438 C 815.304688 554.335938 813.332031 557.425781 812.859375 560.902344 C 812.300781 565.835938 814.363281 570.425781 818.523438 573.46875 C 823.84375 577.332031 831.691406 578.144531 837.527344 575.488281 C 837.570312 575.488281 837.65625 575.445312 837.699219 575.402344 C 835.125 581.019531 829.804688 585.738281 824.140625 588.269531 C 820.324219 590.15625 815.5625 590.84375 811.402344 590.113281 C 811.144531 590.070312 810.84375 590.027344 810.542969 589.941406 C 812.171875 586.554688 812.429688 582.308594 811.230469 579.089844 C 810.242188 576.515625 808.398438 574.671875 805.78125 573.640625 C 802.652344 572.613281 799.691406 573.382812 797.761719 575.699219 C 795.488281 578.445312 795.230469 582.734375 797.074219 586.082031 C 798.359375 588.65625 800.207031 590.757812 802.566406 592.386719 C 798.273438 597.578125 791.753906 601.140625 784.246094 602.125 C 774.550781 603.414062 765.328125 600.238281 759.410156 593.589844 C 756.449219 590.457031 754.347656 584.152344 753.574219 577.933594 C 755.164062 577.503906 756.792969 577.074219 758.464844 576.644531 C 768.632812 574.070312 780.214844 571.109375 782.574219 559.957031 C 783.734375 554.507812 779.914062 548.632812 773.867188 546.574219 C 766.875 544.214844 756.878906 547.089844 749.757812 562.144531 C 748.296875 565.277344 747.65625 569.523438 747.785156 574.070312 C 743.066406 575.785156 739.289062 578.1875 737.660156 582.394531 C 735.644531 587.625 737.488281 594.363281 743.578125 603.628906 C 748.214844 610.707031 749.328125 616.582031 746.925781 621.085938 C 743.792969 626.878906 734.914062 629.925781 727.75 629.925781 C 720.585938 629.925781 725.003906 631.167969 725.003906 632.667969 C 725.003906 634.171875 726.25 635.414062 727.75 635.414062 C 736.246094 635.414062 747.398438 631.769531 751.730469 623.703125 C 754.089844 619.285156 755.417969 611.734375 748.171875 600.667969 C 743.28125 593.246094 741.476562 587.753906 742.765625 584.410156 C 743.535156 582.394531 745.554688 580.933594 748.257812 579.777344 C 749.285156 586.726562 751.816406 593.546875 755.335938 597.320312 C 762.371094 605.300781 773.394531 609.160156 784.890625 607.617188 C 794.285156 606.371094 802.394531 601.738281 807.496094 594.917969 C 808.398438 595.21875 809.34375 595.433594 810.328125 595.605469 C 815.691406 596.550781 821.570312 595.734375 826.371094 593.332031 C 834.867188 589.472656 843.144531 581.363281 844.519531 571.28125 C 846.191406 569.910156 847.777344 568.324219 849.238281 566.519531 C 858.117188 555.625 860.820312 540.308594 856.53125 525.554688 C 852.324219 511.183594 842.417969 500.457031 829.246094 496.125 C 827.015625 495.394531 824.742188 494.96875 822.511719 494.839844 C 822.125 494.28125 821.695312 493.679688 821.269531 493.121094 C 809.898438 478.625 787.851562 472.703125 770.304688 478.878906 C 752.503906 467.855469 718.527344 475.535156 704.15625 490.460938 C 702.140625 490.292969 700.039062 490.378906 697.851562 490.632812 C 697.851562 490.632812 697.851562 490.632812 697.808594 490.632812 C 697.808594 490.632812 697.808594 490.632812 697.765625 490.632812 C 697.765625 490.632812 697.722656 490.632812 697.679688 490.632812 C 697.679688 490.632812 697.59375 490.632812 697.59375 490.632812 C 678.03125 494.453125 664.433594 505.777344 658.214844 523.195312 C 657.398438 525.339844 656.710938 527.957031 656.367188 530.742188 C 656.238281 530.828125 656.109375 530.871094 655.984375 530.957031 C 647.875 535.417969 641.183594 544.515625 637.578125 555.925781 C 634.535156 565.578125 635.261719 573.941406 639.679688 580.804688 C 645.472656 589.8125 656.410156 594.105469 664.691406 595.132812 C 665.078125 595.175781 665.503906 595.21875 665.976562 595.261719 C 665.546875 604.3125 668.207031 611.5625 673.484375 615.726562 C 677.730469 619.113281 684.167969 620.871094 690.429688 622.632812 C 703.726562 626.320312 711.75 629.109375 709.433594 639.363281 C 708.53125 643.265625 706.515625 646.441406 703.683594 648.285156 C 693.175781 655.191406 677.21875 643.996094 667.695312 637.300781 C 660.53125 632.285156 651.519531 632.539062 644.699219 637.988281 C 637.921875 643.394531 635.648438 652.058594 638.953125 660.082031 C 640.023438 662.699219 640.96875 664.972656 641.742188 666.859375 C 642.382812 668.402344 642.898438 669.691406 643.328125 670.675781 C 648.519531 683.460938 650.75 695.558594 649.976562 706.582031 C 649.417969 713.445312 648.945312 719.625 648.5625 725.285156 C 645.601562 766.039062 644.699219 778.351562 613.386719 824.808594 C 609.953125 829.183594 610.296875 833.859375 614.285156 837.679688 C 625.183594 848.101562 664.992188 853.035156 698.582031 854.152344 C 703.769531 854.324219 709.175781 854.410156 714.625 854.410156 C 742.765625 854.410156 772.75 851.878906 781.332031 844.5 C 784.546875 841.753906 785.019531 838.109375 782.746094 834.804688 C 772.320312 818.632812 774.679688 809.878906 778.886719 794.007812 L 779.570312 791.476562 C 779.699219 791.003906 779.828125 790.535156 780 790.0625 C 792.914062 754.628906 818.394531 754.199219 859.019531 757.757812 C 867.082031 757.929688 873.046875 755.785156 876.648438 751.324219 C 880.894531 746.046875 881.667969 737.726562 879.007812 726.789062 C 878.792969 725.199219 878.492188 723.828125 878.195312 722.625 C 877.378906 719.066406 877.207031 718.207031 879.953125 715.546875 C 880.765625 714.777344 881.882812 714.175781 883.082031 713.53125 C 885.871094 712.03125 890.503906 709.542969 888.101562 703.195312 C 887.160156 700.664062 886.816406 697.101562 890.632812 694.613281 C 892.480469 693.414062 893.722656 691.441406 894.023438 689.25 C 894.324219 687.191406 893.679688 685.132812 892.179688 683.460938 C 891.320312 682.601562 883.941406 674.753906 885.65625 667.589844 C 886.6875 663.296875 891.019531 659.824219 898.355469 657.378906 C 904.789062 655.621094 909.039062 651.371094 910.023438 645.753906 C 911.269531 638.675781 907.191406 631.167969 899.34375 625.675781 Z M 683.050781 570.382812 C 690.300781 566.09375 695.75 568.835938 698.195312 572.527344 C 700.726562 576.300781 700.898438 582.265625 695.320312 586.46875 C 690.6875 589.941406 681.25 590.757812 672.285156 590.285156 C 673.914062 581.578125 678.332031 573.214844 683.09375 570.425781 Z M 754.949219 564.417969 C 758.9375 555.925781 764.214844 551.207031 769.492188 551.207031 C 774.765625 551.207031 771.421875 551.378906 772.363281 551.679688 C 775.796875 552.835938 778.070312 556.011719 777.46875 558.757812 C 775.796875 566.605469 766.832031 568.878906 757.351562 571.28125 C 756.019531 571.625 754.734375 571.925781 753.445312 572.269531 C 753.488281 569.179688 753.960938 566.390625 754.90625 564.375 Z M 805.738281 587.796875 C 804.324219 586.8125 803.035156 585.4375 802.136719 583.550781 C 801.234375 581.921875 801.492188 580.078125 802.222656 579.21875 C 802.351562 579.046875 802.652344 578.703125 803.335938 578.703125 C 804.023438 578.703125 803.851562 578.703125 804.195312 578.832031 C 805.222656 579.21875 805.910156 579.949219 806.339844 581.0625 C 807.070312 582.949219 806.8125 585.695312 805.738281 587.796875 Z M 835.554688 570.46875 C 831.390625 572.355469 825.644531 571.753906 821.910156 569.050781 C 820.066406 567.722656 818.007812 565.320312 818.4375 561.585938 C 818.695312 559.699219 819.851562 557.941406 821.695312 556.65625 C 823.457031 555.410156 825.601562 554.765625 827.746094 554.765625 C 829.890625 554.765625 829.117188 554.851562 829.804688 554.980469 C 835.082031 555.96875 838.597656 561.03125 839.328125 565.535156 C 839.5 566.476562 839.585938 567.421875 839.542969 568.367188 C 838.253906 569.222656 836.925781 569.953125 835.554688 570.511719 Z M 819.765625 500.199219 C 822.339844 505.003906 823.242188 510.324219 822.039062 514.914062 C 821.355469 518.046875 819.292969 520.535156 816.550781 521.5625 C 814.0625 522.507812 811.402344 522.121094 809.042969 520.449219 C 806.425781 518.5625 805.011719 515.816406 805.050781 512.640625 C 805.136719 508.996094 807.199219 505.433594 810.5 503.246094 C 813.074219 501.402344 816.335938 500.371094 819.765625 500.15625 Z M 769.832031 484.972656 C 774.125 488.488281 776.484375 493.421875 775.96875 498.011719 C 775.539062 502.945312 770.820312 507.0625 765.84375 506.980469 C 763.742188 506.980469 761.855469 506.078125 760.4375 504.492188 C 758.894531 502.730469 758.164062 500.242188 758.464844 497.839844 C 759.023438 492.09375 764.214844 487.675781 768.847656 485.445312 C 769.148438 485.273438 769.492188 485.144531 769.789062 485.015625 Z M 704.15625 502.003906 C 704.457031 500.070312 705.273438 498.097656 706.601562 496.253906 C 709.734375 496.941406 712.695312 498.355469 714.582031 500.929688 C 716.296875 503.03125 716.769531 506.464844 715.695312 508.996094 C 715.140625 510.28125 713.9375 511.910156 711.492188 512.125 C 709.132812 512.296875 707.417969 510.96875 706.386719 509.851562 C 704.542969 507.75 703.640625 504.664062 704.15625 502.046875 Z M 669.710938 534.519531 C 671.296875 535.035156 673.441406 536.148438 674.601562 538.679688 C 675.5 540.523438 675.328125 542.667969 674.042969 544.257812 C 672.839844 545.757812 670.996094 546.402344 669.066406 545.972656 C 666.40625 545.285156 664.476562 543.828125 663.273438 541.425781 C 662.246094 539.410156 661.773438 536.964844 661.773438 534.433594 C 664.390625 533.703125 667.265625 533.703125 669.667969 534.433594 Z M 669.710938 534.519531 " fill-opacity="1" fill-rule="nonzero"/></g><g clip-path="url(#7d5f0656fd)"><g transform="matrix(1, 0, 0, 1, 427, 493)"><g clip-path="url(#1dbe14219b)"><g clip-path="url(#d56687f1e1)"><path fill="#693e26" d="M 321.144531 357.265625 C 320.78125 328.046875 310.953125 299.363281 293.699219 275.828125 C 276.296875 252.101562 251.109375 234.714844 223.042969 226.074219 C 208.914062 221.726562 194.171875 219.578125 179.382812 219.871094 C 162.925781 220.183594 146.804688 223.820312 130.546875 225.980469 C 114.582031 228.113281 97.824219 228.894531 82.421875 223.34375 C 70.09375 218.925781 59.375 210.796875 51.382812 200.441406 C 43.425781 190.148438 38.292969 177.890625 36.84375 164.949219 C 35.386719 152.003906 38.292969 138.851562 44.382812 127.367188 C 56.023438 105.433594 80.851562 87.953125 106.453125 90.519531 C 117.75 91.648438 129.273438 96.28125 135.984375 105.851562 C 143.585938 116.695312 141.355469 130.898438 133.566406 140.960938 C 115.050781 164.863281 78.148438 157.929688 54.574219 146.417969 C 30.925781 134.851562 11.085938 113.851562 4.066406 88.117188 C -2.65625 63.488281 2.617188 35.710938 18.546875 15.660156 C 22.449219 10.734375 27.015625 6.480469 32.070312 2.761719 C 35.28125 0.417969 38.359375 5.769531 35.1875 8.09375 C 15.625 22.445312 6.148438 47.445312 7.519531 71.21875 C 8.96875 96.375 23.675781 118.820312 44.042969 133.046875 C 54.359375 140.265625 65.96875 145.507812 78.226562 148.402344 C 91.84375 151.597656 107.695312 152.421875 120.109375 144.890625 C 130.382812 138.667969 137.765625 125.628906 133.21875 113.675781 C 129.402344 103.683594 118.558594 98.574219 108.617188 96.976562 C 84.816406 93.132812 61.34375 109.382812 50.230469 129.535156 C 38.015625 151.675781 41.371094 178.722656 57.351562 198.097656 C 65.160156 207.570312 75.484375 214.960938 87.316406 218.46875 C 102.480469 222.960938 118.546875 221.597656 133.972656 219.324219 C 149.460938 217.035156 164.917969 213.832031 180.636719 213.667969 C 194.539062 213.539062 208.511719 215.464844 221.882812 219.289062 C 248.574219 226.910156 273.128906 242.082031 291.355469 263.074219 C 309.417969 283.898438 321.539062 309.890625 325.65625 337.164062 C 326.664062 343.820312 327.230469 350.53125 327.316406 357.265625 C 327.367188 361.230469 321.191406 361.230469 321.144531 357.265625 " fill-opacity="1" fill-rule="nonzero"/></g></g></g></g><g clip-path="url(#650d861c19)"><g clip-path="url(#9390a007f2)"><g clip-path="url(#83a49792c9)"><path fill="#693e26" d="M 493.292969 474.722656 C 493.285156 474.710938 493.277344 474.699219 493.265625 474.6875 C 493.011719 474.34375 493.078125 473.859375 493.421875 473.597656 C 498.410156 469.863281 504.148438 467.28125 510.488281 465.917969 C 517.8125 464.34375 525.636719 464.445312 533.742188 466.222656 C 534.160156 466.316406 534.425781 466.730469 534.335938 467.148438 C 534.242188 467.570312 533.828125 467.835938 533.410156 467.742188 C 525.519531 466.011719 517.921875 465.910156 510.820312 467.4375 C 504.699219 468.753906 499.160156 471.242188 494.359375 474.84375 C 494.027344 475.089844 493.558594 475.035156 493.296875 474.71875 Z M 493.292969 474.722656 " fill-opacity="1" fill-rule="nonzero"/></g></g></g><g clip-path="url(#388c15b28c)"><g clip-path="url(#87b705b876)"><g clip-path="url(#838d85dfb9)"><path fill="#693e26" d="M 490.261719 471.101562 C 489.996094 470.785156 490.023438 470.316406 490.324219 470.035156 C 494.707031 465.933594 498.128906 460.917969 500.496094 455.125 C 503.242188 448.394531 504.46875 440.894531 504.148438 432.828125 C 504.128906 432.398438 504.464844 432.035156 504.894531 432.019531 C 505.324219 432.003906 505.683594 432.335938 505.703125 432.765625 C 506.03125 441.058594 504.765625 448.78125 501.933594 455.714844 C 499.484375 461.714844 495.9375 466.917969 491.386719 471.171875 C 491.074219 471.464844 490.582031 471.449219 490.285156 471.136719 C 490.277344 471.125 490.265625 471.113281 490.257812 471.101562 Z M 490.261719 471.101562 " fill-opacity="1" fill-rule="nonzero"/></g></g></g><g clip-path="url(#e49938b706)"><g clip-path="url(#67d4d90d66)"><g clip-path="url(#1b38f68d89)"><path fill="#693e26" d="M 544.664062 486.636719 C 533.003906 481.808594 520.863281 479.332031 508.21875 479.527344 C 482.195312 480.308594 484.140625 482.34375 489.390625 456.984375 C 491.917969 443.789062 491.484375 430.660156 488.1875 417.652344 C 485.921875 404.203125 466.925781 382.703125 463.832031 408.132812 C 460.683594 417.984375 441.152344 418.933594 441.382812 434.640625 C 433.367188 439.542969 431.28125 450.085938 435.269531 458.355469 C 406.234375 462.746094 411.417969 508.230469 441.660156 504.046875 C 449.441406 502.921875 456.585938 499.660156 464.070312 497.339844 C 459.785156 505.050781 455.386719 512.109375 453.019531 520.511719 C 445.957031 547.160156 487.917969 560.140625 497.578125 532.660156 C 505.070312 537.992188 515.757812 537.734375 522.03125 530.542969 C 537.894531 534.242188 542.644531 511.441406 554.253906 513.25 C 578.410156 512.859375 556.011719 489.5625 544.667969 486.640625 Z M 464.980469 494.699219 C 452.511719 499.808594 433.601562 508.515625 423.300781 495.859375 C 408.023438 479.75 428.125 453.667969 438.078125 462.175781 C 441.75 470.792969 479.15625 478.898438 475.292969 486.726562 C 471.191406 488.613281 468.992188 492.832031 464.980469 494.699219 Z M 489.929688 540.730469 C 475.96875 554.09375 450.890625 541.429688 454.503906 522.339844 C 457.96875 509.203125 465.167969 496.824219 476.144531 488.667969 C 478.765625 485.550781 480.640625 490.570312 481.554688 492.632812 C 484.425781 501.429688 486.832031 510.355469 488.996094 519.351562 C 491.410156 529.503906 501.449219 531.148438 489.929688 540.730469 Z M 561.007812 510.183594 C 558.285156 511.285156 555.261719 511.554688 552.34375 511.375 C 542.582031 511.550781 539.316406 524.789062 529.796875 527.878906 C 525.894531 530.738281 522.917969 527.582031 520.496094 529.117188 C 515.679688 534.492188 508.457031 536.003906 501.953125 532.96875 C 486.09375 524.785156 490.136719 502.851562 481.957031 489.339844 C 472.507812 471.226562 445.808594 474.132812 436.554688 456.421875 C 433.390625 449.257812 435.484375 440.539062 442.308594 436.46875 C 442.988281 436.054688 443.710938 435.769531 443.539062 434.828125 C 442.773438 424.457031 454.070312 419.382812 461.507812 414.777344 C 469.835938 409.164062 464.085938 387.679688 479.453125 403.613281 C 492.722656 422.34375 489.902344 447.152344 485.21875 468.332031 C 485.546875 471.917969 482.332031 479.34375 486.957031 480.601562 C 493.378906 481.742188 499.816406 481.875 506.3125 481.421875 C 525.289062 481.503906 547.625 484.878906 560.265625 500.398438 C 561.980469 503.1875 565.796875 508.421875 561.007812 510.183594 Z M 561.007812 510.183594 " fill-opacity="1" fill-rule="nonzero"/></g></g></g><g clip-path="url(#f1193e2b4a)"><g clip-path="url(#2325f8fd1f)"><g clip-path="url(#e0188cdfc4)"><path fill="#693e26" d="M 459.355469 494.445312 C 462.597656 492.039062 466.269531 490.195312 468.769531 486.925781 C 470.425781 484.90625 472.449219 483.304688 474.730469 482.054688 C 477.960938 480.285156 480.554688 477.867188 482.511719 474.738281 C 484.582031 471.15625 488.21875 467.867188 492.644531 468.417969 C 500.949219 470.003906 494.113281 480.46875 488.726562 481.542969 C 481.964844 483.523438 479.089844 490.515625 473.035156 493.554688 C 468.488281 496.089844 465.941406 500.957031 461.230469 503.300781 C 459.792969 504.0625 453.230469 506.445312 453.691406 503.519531 C 454.390625 499.851562 456.453125 496.765625 459.425781 494.535156 C 459.402344 494.503906 459.378906 494.472656 459.359375 494.441406 Z M 459.355469 494.445312 " fill-opacity="1" fill-rule="nonzero"/></g></g></g><g fill="#693e26" fill-opacity="1"><g transform="translate(177.464945, 1008.540061)"><g><path d="M 120.8125 -110.75 C 122.039062 -110.75 123.03125 -110.34375 123.78125 -109.53125 C 124.539062 -108.726562 124.921875 -107.710938 124.921875 -106.484375 L 124.921875 -4.25 C 124.921875 -3.019531 124.539062 -2.003906 123.78125 -1.203125 C 123.03125 -0.398438 122.039062 0 120.8125 0 C 119.582031 0 118.539062 -0.398438 117.6875 -1.203125 C 116.84375 -2.003906 116.421875 -3.019531 116.421875 -4.25 L 116.421875 -91.171875 L 73.3125 -3.40625 C 72.644531 -2.082031 71.414062 -1.421875 69.625 -1.421875 C 67.914062 -1.421875 66.59375 -2.316406 65.65625 -4.109375 L 22.6875 -89.90625 L 22.6875 -4.25 C 22.6875 -3.019531 22.285156 -2.003906 21.484375 -1.203125 C 20.679688 -0.398438 19.664062 0 18.4375 0 C 17.207031 0 16.1875 -0.398438 15.375 -1.203125 C 14.570312 -2.003906 14.171875 -3.019531 14.171875 -4.25 L 14.171875 -106.484375 C 14.171875 -107.710938 14.570312 -108.726562 15.375 -109.53125 C 16.1875 -110.34375 17.207031 -110.75 18.4375 -110.75 C 20.320312 -110.75 21.597656 -110.035156 22.265625 -108.609375 L 69.90625 -14.46875 L 116.984375 -108.609375 C 117.835938 -110.035156 119.113281 -110.75 120.8125 -110.75 Z M 120.8125 -110.75 "/></g></g></g><g fill="#693e26" fill-opacity="1"><g transform="translate(306.630519, 1008.540061)"><g><path d="M 48.203125 -78.40625 C 55.578125 -78.40625 62.289062 -76.679688 68.34375 -73.234375 C 74.394531 -69.785156 79.144531 -65.035156 82.59375 -58.984375 C 86.039062 -52.929688 87.765625 -46.171875 87.765625 -38.703125 L 87.765625 -4.25 C 87.765625 -3.019531 87.382812 -2.003906 86.625 -1.203125 C 85.875 -0.398438 84.835938 0 83.515625 0 C 82.285156 0 81.269531 -0.398438 80.46875 -1.203125 C 79.664062 -2.003906 79.265625 -3.019531 79.265625 -4.25 L 79.265625 -15.3125 C 76.140625 -10.300781 71.859375 -6.351562 66.421875 -3.46875 C 60.992188 -0.59375 54.921875 0.84375 48.203125 0.84375 C 40.742188 0.84375 33.988281 -0.878906 27.9375 -4.328125 C 21.882812 -7.773438 17.128906 -12.523438 13.671875 -18.578125 C 10.222656 -24.628906 8.5 -31.335938 8.5 -38.703125 C 8.5 -46.171875 10.222656 -52.929688 13.671875 -58.984375 C 17.128906 -65.035156 21.882812 -69.785156 27.9375 -73.234375 C 33.988281 -76.679688 40.742188 -78.40625 48.203125 -78.40625 Z M 48.203125 -7.09375 C 54.066406 -7.09375 59.363281 -8.460938 64.09375 -11.203125 C 68.820312 -13.941406 72.53125 -17.722656 75.21875 -22.546875 C 77.914062 -27.367188 79.265625 -32.753906 79.265625 -38.703125 C 79.265625 -44.660156 77.914062 -50.050781 75.21875 -54.875 C 72.53125 -59.695312 68.820312 -63.5 64.09375 -66.28125 C 59.363281 -69.070312 54.066406 -70.46875 48.203125 -70.46875 C 42.347656 -70.46875 37.054688 -69.070312 32.328125 -66.28125 C 27.597656 -63.5 23.863281 -59.695312 21.125 -54.875 C 18.382812 -50.050781 17.015625 -44.660156 17.015625 -38.703125 C 17.015625 -32.753906 18.382812 -27.367188 21.125 -22.546875 C 23.863281 -17.722656 27.597656 -13.941406 32.328125 -11.203125 C 37.054688 -8.460938 42.347656 -7.09375 48.203125 -7.09375 Z M 48.203125 -7.09375 "/></g></g></g><g fill="#693e26" fill-opacity="1"><g transform="translate(392.976997, 1008.540061)"><g><path d="M 45.65625 -78.40625 C 52.84375 -78.40625 56.4375 -76.847656 56.4375 -73.734375 C 56.4375 -73.265625 56.390625 -72.882812 56.296875 -72.59375 C 56.015625 -71.5625 55.566406 -70.832031 54.953125 -70.40625 C 54.335938 -69.976562 53.507812 -69.765625 52.46875 -69.765625 C 51.613281 -69.765625 50.5 -69.859375 49.125 -70.046875 C 47.757812 -70.234375 46.601562 -70.328125 45.65625 -70.328125 C 40.925781 -70.328125 36.71875 -69.332031 33.03125 -67.34375 C 29.351562 -65.363281 26.472656 -62.625 24.390625 -59.125 C 22.304688 -55.625 21.265625 -51.703125 21.265625 -47.359375 L 21.265625 -4.25 C 21.265625 -3.019531 20.882812 -2.003906 20.125 -1.203125 C 19.375 -0.398438 18.335938 0 17.015625 0 C 15.785156 0 14.769531 -0.398438 13.96875 -1.203125 C 13.164062 -2.003906 12.765625 -3.019531 12.765625 -4.25 L 12.765625 -73.3125 C 12.765625 -74.632812 13.164062 -75.671875 13.96875 -76.421875 C 14.769531 -77.179688 15.785156 -77.5625 17.015625 -77.5625 C 18.335938 -77.5625 19.375 -77.179688 20.125 -76.421875 C 20.882812 -75.671875 21.265625 -74.632812 21.265625 -73.3125 L 21.265625 -64.515625 C 24.003906 -68.867188 27.5 -72.269531 31.75 -74.71875 C 36.007812 -77.175781 40.644531 -78.40625 45.65625 -78.40625 Z M 45.65625 -78.40625 "/></g></g></g><g fill="#693e26" fill-opacity="1"><g transform="translate(445.153216, 1008.540061)"><g><path d="M 47.078125 0.84375 C 39.796875 0.84375 33.222656 -0.878906 27.359375 -4.328125 C 21.503906 -7.773438 16.894531 -12.523438 13.53125 -18.578125 C 10.175781 -24.628906 8.5 -31.335938 8.5 -38.703125 C 8.5 -46.171875 10.054688 -52.90625 13.171875 -58.90625 C 16.296875 -64.914062 20.644531 -69.644531 26.21875 -73.09375 C 31.800781 -76.539062 38.046875 -78.265625 44.953125 -78.265625 C 51.003906 -78.265625 56.535156 -77.082031 61.546875 -74.71875 C 66.554688 -72.363281 70.898438 -68.867188 74.578125 -64.234375 C 75.242188 -63.285156 75.578125 -62.484375 75.578125 -61.828125 C 75.578125 -60.503906 74.914062 -59.460938 73.59375 -58.703125 C 72.925781 -58.140625 72.171875 -57.859375 71.328125 -57.859375 C 70.003906 -57.859375 68.914062 -58.421875 68.0625 -59.546875 C 62.007812 -66.734375 54.304688 -70.328125 44.953125 -70.328125 C 39.460938 -70.328125 34.59375 -68.976562 30.34375 -66.28125 C 26.09375 -63.59375 22.804688 -59.835938 20.484375 -55.015625 C 18.171875 -50.191406 17.015625 -44.753906 17.015625 -38.703125 C 17.015625 -32.753906 18.289062 -27.367188 20.84375 -22.546875 C 23.394531 -17.722656 26.9375 -13.941406 31.46875 -11.203125 C 36.007812 -8.460938 41.210938 -7.09375 47.078125 -7.09375 C 55.390625 -7.09375 62.050781 -9.40625 67.0625 -14.03125 C 67.914062 -14.882812 68.910156 -15.3125 70.046875 -15.3125 C 71.085938 -15.3125 71.9375 -14.984375 72.59375 -14.328125 C 73.539062 -13.472656 74.015625 -12.429688 74.015625 -11.203125 C 74.015625 -10.160156 73.640625 -9.3125 72.890625 -8.65625 C 69.578125 -5.625 65.695312 -3.28125 61.25 -1.625 C 56.8125 0.0195312 52.085938 0.84375 47.078125 0.84375 Z M 47.078125 0.84375 "/></g></g></g><g fill="#693e26" fill-opacity="1"><g transform="translate(519.306163, 1008.540061)"><g><path d="M 44.953125 -78.265625 C 51.847656 -78.265625 58.015625 -76.632812 63.453125 -73.375 C 68.890625 -70.113281 73.117188 -65.597656 76.140625 -59.828125 C 79.171875 -54.066406 80.6875 -47.5 80.6875 -40.125 C 80.6875 -38.894531 80.304688 -37.925781 79.546875 -37.21875 C 78.785156 -36.507812 77.789062 -36.15625 76.5625 -36.15625 L 17.15625 -36.15625 C 17.4375 -30.582031 18.898438 -25.597656 21.546875 -21.203125 C 24.191406 -16.804688 27.738281 -13.378906 32.1875 -10.921875 C 36.632812 -8.460938 41.597656 -7.234375 47.078125 -7.234375 C 50.765625 -7.234375 54.472656 -7.867188 58.203125 -9.140625 C 61.941406 -10.421875 64.894531 -12.097656 67.0625 -14.171875 C 68.007812 -14.929688 69.003906 -15.3125 70.046875 -15.3125 C 71.085938 -15.3125 71.9375 -15.03125 72.59375 -14.46875 C 73.632812 -13.613281 74.15625 -12.617188 74.15625 -11.484375 C 74.15625 -10.535156 73.734375 -9.640625 72.890625 -8.796875 C 69.859375 -6.046875 65.90625 -3.773438 61.03125 -1.984375 C 56.164062 -0.191406 51.515625 0.703125 47.078125 0.703125 C 39.609375 0.703125 32.96875 -0.972656 27.15625 -4.328125 C 21.34375 -7.679688 16.78125 -12.359375 13.46875 -18.359375 C 10.15625 -24.359375 8.5 -31.140625 8.5 -38.703125 C 8.5 -46.367188 10.035156 -53.203125 13.109375 -59.203125 C 16.179688 -65.203125 20.484375 -69.878906 26.015625 -73.234375 C 31.546875 -76.585938 37.859375 -78.265625 44.953125 -78.265625 Z M 44.953125 -70.328125 C 37.578125 -70.328125 31.359375 -67.867188 26.296875 -62.953125 C 21.242188 -58.035156 18.242188 -51.5625 17.296875 -43.53125 L 72.453125 -43.53125 C 71.796875 -51.5625 68.960938 -58.035156 63.953125 -62.953125 C 58.941406 -67.867188 52.609375 -70.328125 44.953125 -70.328125 Z M 44.953125 -70.328125 "/></g></g></g><g fill="#693e26" fill-opacity="1"><g transform="translate(595.72765, 1008.540061)"><g><path d="M 28.359375 0 C 22.972656 0 18.550781 -2.171875 15.09375 -6.515625 C 11.644531 -10.867188 9.921875 -16.492188 9.921875 -23.390625 L 9.921875 -106.484375 C 9.921875 -107.804688 10.320312 -108.847656 11.125 -109.609375 C 11.9375 -110.367188 12.953125 -110.75 14.171875 -110.75 C 15.503906 -110.75 16.546875 -110.367188 17.296875 -109.609375 C 18.054688 -108.847656 18.4375 -107.804688 18.4375 -106.484375 L 18.4375 -23.390625 C 18.4375 -19.046875 19.359375 -15.476562 21.203125 -12.6875 C 23.046875 -9.894531 25.429688 -8.5 28.359375 -8.5 L 31.90625 -8.5 C 32.945312 -8.5 33.796875 -8.117188 34.453125 -7.359375 C 35.117188 -6.609375 35.453125 -5.570312 35.453125 -4.25 C 35.453125 -3.019531 35.070312 -2.003906 34.3125 -1.203125 C 33.5625 -0.398438 32.519531 0 31.1875 0 Z M 28.359375 0 "/></g></g></g><g fill="#693e26" fill-opacity="1"><g transform="translate(624.084002, 1008.540061)"><g><path d="M 48.203125 -78.40625 C 55.578125 -78.40625 62.289062 -76.679688 68.34375 -73.234375 C 74.394531 -69.785156 79.144531 -65.035156 82.59375 -58.984375 C 86.039062 -52.929688 87.765625 -46.171875 87.765625 -38.703125 L 87.765625 -4.25 C 87.765625 -3.019531 87.382812 -2.003906 86.625 -1.203125 C 85.875 -0.398438 84.835938 0 83.515625 0 C 82.285156 0 81.269531 -0.398438 80.46875 -1.203125 C 79.664062 -2.003906 79.265625 -3.019531 79.265625 -4.25 L 79.265625 -15.3125 C 76.140625 -10.300781 71.859375 -6.351562 66.421875 -3.46875 C 60.992188 -0.59375 54.921875 0.84375 48.203125 0.84375 C 40.742188 0.84375 33.988281 -0.878906 27.9375 -4.328125 C 21.882812 -7.773438 17.128906 -12.523438 13.671875 -18.578125 C 10.222656 -24.628906 8.5 -31.335938 8.5 -38.703125 C 8.5 -46.171875 10.222656 -52.929688 13.671875 -58.984375 C 17.128906 -65.035156 21.882812 -69.785156 27.9375 -73.234375 C 33.988281 -76.679688 40.742188 -78.40625 48.203125 -78.40625 Z M 48.203125 -7.09375 C 54.066406 -7.09375 59.363281 -8.460938 64.09375 -11.203125 C 68.820312 -13.941406 72.53125 -17.722656 75.21875 -22.546875 C 77.914062 -27.367188 79.265625 -32.753906 79.265625 -38.703125 C 79.265625 -44.660156 77.914062 -50.050781 75.21875 -54.875 C 72.53125 -59.695312 68.820312 -63.5 64.09375 -66.28125 C 59.363281 -69.070312 54.066406 -70.46875 48.203125 -70.46875 C 42.347656 -70.46875 37.054688 -69.070312 32.328125 -66.28125 C 27.597656 -63.5 23.863281 -59.695312 21.125 -54.875 C 18.382812 -50.050781 17.015625 -44.660156 17.015625 -38.703125 C 17.015625 -32.753906 18.382812 -27.367188 21.125 -22.546875 C 23.863281 -17.722656 27.597656 -13.941406 32.328125 -11.203125 C 37.054688 -8.460938 42.347656 -7.09375 48.203125 -7.09375 Z M 48.203125 -7.09375 "/></g></g></g><g fill="#693e26" fill-opacity="1"><g transform="translate(710.430445, 1008.540061)"><g/></g></g><g fill="#693e26" fill-opacity="1"><g transform="translate(742.047858, 1008.540061)"><g><path d="M 18.4375 0 C 17.207031 0 16.1875 -0.398438 15.375 -1.203125 C 14.570312 -2.003906 14.171875 -3.019531 14.171875 -4.25 L 14.171875 -106.484375 C 14.171875 -107.710938 14.570312 -108.726562 15.375 -109.53125 C 16.1875 -110.34375 17.207031 -110.75 18.4375 -110.75 C 19.664062 -110.75 20.679688 -110.34375 21.484375 -109.53125 C 22.285156 -108.726562 22.6875 -107.710938 22.6875 -106.484375 L 22.6875 -59.703125 L 94.296875 -59.703125 L 94.296875 -106.484375 C 94.296875 -107.710938 94.695312 -108.726562 95.5 -109.53125 C 96.300781 -110.34375 97.316406 -110.75 98.546875 -110.75 C 99.679688 -110.75 100.671875 -110.34375 101.515625 -109.53125 C 102.367188 -108.726562 102.796875 -107.710938 102.796875 -106.484375 L 102.796875 -4.25 C 102.796875 -3.019531 102.367188 -2.003906 101.515625 -1.203125 C 100.671875 -0.398438 99.679688 0 98.546875 0 C 97.316406 0 96.300781 -0.398438 95.5 -1.203125 C 94.695312 -2.003906 94.296875 -3.019531 94.296875 -4.25 L 94.296875 -52.046875 L 22.6875 -52.046875 L 22.6875 -4.25 C 22.6875 -3.019531 22.285156 -2.003906 21.484375 -1.203125 C 20.679688 -0.398438 19.664062 0 18.4375 0 Z M 18.4375 0 "/></g></g></g><g fill="#693e26" fill-opacity="1"><g transform="translate(849.094968, 1008.540061)"><g><path d="M 48.203125 0.84375 C 40.742188 0.84375 33.988281 -0.878906 27.9375 -4.328125 C 21.882812 -7.773438 17.128906 -12.523438 13.671875 -18.578125 C 10.222656 -24.628906 8.5 -31.335938 8.5 -38.703125 C 8.5 -46.171875 10.222656 -52.929688 13.671875 -58.984375 C 17.128906 -65.035156 21.882812 -69.785156 27.9375 -73.234375 C 33.988281 -76.679688 40.742188 -78.40625 48.203125 -78.40625 C 55.578125 -78.40625 62.289062 -76.679688 68.34375 -73.234375 C 74.394531 -69.785156 79.144531 -65.035156 82.59375 -58.984375 C 86.039062 -52.929688 87.765625 -46.171875 87.765625 -38.703125 C 87.765625 -31.335938 86.039062 -24.628906 82.59375 -18.578125 C 79.144531 -12.523438 74.394531 -7.773438 68.34375 -4.328125 C 62.289062 -0.878906 55.578125 0.84375 48.203125 0.84375 Z M 48.203125 -7.09375 C 54.066406 -7.09375 59.363281 -8.460938 64.09375 -11.203125 C 68.820312 -13.941406 72.53125 -17.722656 75.21875 -22.546875 C 77.914062 -27.367188 79.265625 -32.753906 79.265625 -38.703125 C 79.265625 -44.660156 77.914062 -50.050781 75.21875 -54.875 C 72.53125 -59.695312 68.820312 -63.5 64.09375 -66.28125 C 59.363281 -69.070312 54.066406 -70.46875 48.203125 -70.46875 C 42.347656 -70.46875 37.054688 -69.070312 32.328125 -66.28125 C 27.597656 -63.5 23.863281 -59.695312 21.125 -54.875 C 18.382812 -50.050781 17.015625 -44.660156 17.015625 -38.703125 C 17.015625 -32.753906 18.382812 -27.367188 21.125 -22.546875 C 23.863281 -17.722656 27.597656 -13.941406 32.328125 -11.203125 C 37.054688 -8.460938 42.347656 -7.09375 48.203125 -7.09375 Z M 48.203125 -7.09375 "/></g></g></g><g fill="#693e26" fill-opacity="1"><g transform="translate(935.441412, 1008.540061)"><g><path d="M 28.359375 0 C 22.972656 0 18.550781 -2.171875 15.09375 -6.515625 C 11.644531 -10.867188 9.921875 -16.492188 9.921875 -23.390625 L 9.921875 -106.484375 C 9.921875 -107.804688 10.320312 -108.847656 11.125 -109.609375 C 11.9375 -110.367188 12.953125 -110.75 14.171875 -110.75 C 15.503906 -110.75 16.546875 -110.367188 17.296875 -109.609375 C 18.054688 -108.847656 18.4375 -107.804688 18.4375 -106.484375 L 18.4375 -23.390625 C 18.4375 -19.046875 19.359375 -15.476562 21.203125 -12.6875 C 23.046875 -9.894531 25.429688 -8.5 28.359375 -8.5 L 31.90625 -8.5 C 32.945312 -8.5 33.796875 -8.117188 34.453125 -7.359375 C 35.117188 -6.609375 35.453125 -5.570312 35.453125 -4.25 C 35.453125 -3.019531 35.070312 -2.003906 34.3125 -1.203125 C 33.5625 -0.398438 32.519531 0 31.1875 0 Z M 28.359375 0 "/></g></g></g><g fill="#693e26" fill-opacity="1"><g transform="translate(963.797763, 1008.540061)"><g><path d="M 48.203125 -78.40625 C 55.578125 -78.40625 62.289062 -76.679688 68.34375 -73.234375 C 74.394531 -69.785156 79.144531 -65.035156 82.59375 -58.984375 C 86.039062 -52.929688 87.765625 -46.171875 87.765625 -38.703125 L 87.765625 -4.25 C 87.765625 -3.019531 87.382812 -2.003906 86.625 -1.203125 C 85.875 -0.398438 84.835938 0 83.515625 0 C 82.285156 0 81.269531 -0.398438 80.46875 -1.203125 C 79.664062 -2.003906 79.265625 -3.019531 79.265625 -4.25 L 79.265625 -15.3125 C 76.140625 -10.300781 71.859375 -6.351562 66.421875 -3.46875 C 60.992188 -0.59375 54.921875 0.84375 48.203125 0.84375 C 40.742188 0.84375 33.988281 -0.878906 27.9375 -4.328125 C 21.882812 -7.773438 17.128906 -12.523438 13.671875 -18.578125 C 10.222656 -24.628906 8.5 -31.335938 8.5 -38.703125 C 8.5 -46.171875 10.222656 -52.929688 13.671875 -58.984375 C 17.128906 -65.035156 21.882812 -69.785156 27.9375 -73.234375 C 33.988281 -76.679688 40.742188 -78.40625 48.203125 -78.40625 Z M 48.203125 -7.09375 C 54.066406 -7.09375 59.363281 -8.460938 64.09375 -11.203125 C 68.820312 -13.941406 72.53125 -17.722656 75.21875 -22.546875 C 77.914062 -27.367188 79.265625 -32.753906 79.265625 -38.703125 C 79.265625 -44.660156 77.914062 -50.050781 75.21875 -54.875 C 72.53125 -59.695312 68.820312 -63.5 64.09375 -66.28125 C 59.363281 -69.070312 54.066406 -70.46875 48.203125 -70.46875 C 42.347656 -70.46875 37.054688 -69.070312 32.328125 -66.28125 C 27.597656 -63.5 23.863281 -59.695312 21.125 -54.875 C 18.382812 -50.050781 17.015625 -44.660156 17.015625 -38.703125 C 17.015625 -32.753906 18.382812 -27.367188 21.125 -22.546875 C 23.863281 -17.722656 27.597656 -13.941406 32.328125 -11.203125 C 37.054688 -8.460938 42.347656 -7.09375 48.203125 -7.09375 Z M 48.203125 -7.09375 "/></g></g></g><g fill="#693e26" fill-opacity="1"><g transform="translate(1050.144252, 1008.540061)"><g><path d="M 48.203125 -78.5625 C 55.109375 -78.5625 61.28125 -77.140625 66.71875 -74.296875 C 72.15625 -71.460938 76.40625 -67.328125 79.46875 -61.890625 C 82.539062 -56.453125 84.078125 -49.953125 84.078125 -42.390625 L 84.078125 -4.25 C 84.078125 -3.019531 83.675781 -2.003906 82.875 -1.203125 C 82.070312 -0.398438 81.054688 0 79.828125 0 C 78.597656 0 77.582031 -0.398438 76.78125 -1.203125 C 75.976562 -2.003906 75.578125 -3.019531 75.578125 -4.25 L 75.578125 -42.390625 C 75.578125 -51.378906 73.046875 -58.234375 67.984375 -62.953125 C 62.929688 -67.679688 56.335938 -70.046875 48.203125 -70.046875 C 43.203125 -70.046875 38.644531 -69.078125 34.53125 -67.140625 C 30.414062 -65.203125 27.175781 -62.503906 24.8125 -59.046875 C 22.445312 -55.597656 21.265625 -51.796875 21.265625 -47.640625 L 21.265625 -4.25 C 21.265625 -3.019531 20.882812 -2.003906 20.125 -1.203125 C 19.375 -0.398438 18.335938 0 17.015625 0 C 15.785156 0 14.769531 -0.398438 13.96875 -1.203125 C 13.164062 -2.003906 12.765625 -3.019531 12.765625 -4.25 L 12.765625 -73.3125 C 12.765625 -74.632812 13.164062 -75.671875 13.96875 -76.421875 C 14.769531 -77.179688 15.785156 -77.5625 17.015625 -77.5625 C 18.335938 -77.5625 19.375 -77.179688 20.125 -76.421875 C 20.882812 -75.671875 21.265625 -74.632812 21.265625 -73.3125 L 21.265625 -65.9375 C 24.484375 -69.90625 28.40625 -73 33.03125 -75.21875 C 37.664062 -77.445312 42.722656 -78.5625 48.203125 -78.5625 Z M 48.203125 -78.5625 "/></g></g></g><g fill="#693e26" fill-opacity="1"><g transform="translate(1135.639942, 1008.540061)"><g><path d="M 83.515625 -110.75 C 84.835938 -110.75 85.875 -110.367188 86.625 -109.609375 C 87.382812 -108.847656 87.765625 -107.804688 87.765625 -106.484375 L 87.765625 -38 C 87.671875 -30.71875 85.875 -24.097656 82.375 -18.140625 C 78.882812 -12.191406 74.132812 -7.539062 68.125 -4.1875 C 62.125 -0.832031 55.484375 0.84375 48.203125 0.84375 C 40.742188 0.84375 33.988281 -0.878906 27.9375 -4.328125 C 21.882812 -7.773438 17.128906 -12.523438 13.671875 -18.578125 C 10.222656 -24.628906 8.5 -31.390625 8.5 -38.859375 C 8.5 -46.222656 10.222656 -52.929688 13.671875 -58.984375 C 17.128906 -65.035156 21.882812 -69.785156 27.9375 -73.234375 C 33.988281 -76.679688 40.742188 -78.40625 48.203125 -78.40625 C 54.921875 -78.40625 60.992188 -76.960938 66.421875 -74.078125 C 71.859375 -71.203125 76.140625 -67.257812 79.265625 -62.25 L 79.265625 -106.484375 C 79.265625 -107.804688 79.664062 -108.847656 80.46875 -109.609375 C 81.269531 -110.367188 82.285156 -110.75 83.515625 -110.75 Z M 48.203125 -7.09375 C 54.066406 -7.09375 59.363281 -8.484375 64.09375 -11.265625 C 68.820312 -14.054688 72.53125 -17.863281 75.21875 -22.6875 C 77.914062 -27.507812 79.265625 -32.898438 79.265625 -38.859375 C 79.265625 -44.804688 77.914062 -50.191406 75.21875 -55.015625 C 72.53125 -59.835938 68.820312 -63.617188 64.09375 -66.359375 C 59.363281 -69.097656 54.066406 -70.46875 48.203125 -70.46875 C 42.347656 -70.46875 37.054688 -69.097656 32.328125 -66.359375 C 27.597656 -63.617188 23.863281 -59.835938 21.125 -55.015625 C 18.382812 -50.191406 17.015625 -44.804688 17.015625 -38.859375 C 17.015625 -32.898438 18.382812 -27.507812 21.125 -22.6875 C 23.863281 -17.863281 27.597656 -14.054688 32.328125 -11.265625 C 37.054688 -8.484375 42.347656 -7.09375 48.203125 -7.09375 Z M 48.203125 -7.09375 "/></g></g></g><g fill="#693e26" fill-opacity="1"><g transform="translate(1226.239971, 1008.540061)"><g><path d="M 48.203125 -78.40625 C 55.578125 -78.40625 62.289062 -76.679688 68.34375 -73.234375 C 74.394531 -69.785156 79.144531 -65.035156 82.59375 -58.984375 C 86.039062 -52.929688 87.765625 -46.171875 87.765625 -38.703125 L 87.765625 -4.25 C 87.765625 -3.019531 87.382812 -2.003906 86.625 -1.203125 C 85.875 -0.398438 84.835938 0 83.515625 0 C 82.285156 0 81.269531 -0.398438 80.46875 -1.203125 C 79.664062 -2.003906 79.265625 -3.019531 79.265625 -4.25 L 79.265625 -15.3125 C 76.140625 -10.300781 71.859375 -6.351562 66.421875 -3.46875 C 60.992188 -0.59375 54.921875 0.84375 48.203125 0.84375 C 40.742188 0.84375 33.988281 -0.878906 27.9375 -4.328125 C 21.882812 -7.773438 17.128906 -12.523438 13.671875 -18.578125 C 10.222656 -24.628906 8.5 -31.335938 8.5 -38.703125 C 8.5 -46.171875 10.222656 -52.929688 13.671875 -58.984375 C 17.128906 -65.035156 21.882812 -69.785156 27.9375 -73.234375 C 33.988281 -76.679688 40.742188 -78.40625 48.203125 -78.40625 Z M 48.203125 -7.09375 C 54.066406 -7.09375 59.363281 -8.460938 64.09375 -11.203125 C 68.820312 -13.941406 72.53125 -17.722656 75.21875 -22.546875 C 77.914062 -27.367188 79.265625 -32.753906 79.265625 -38.703125 C 79.265625 -44.660156 77.914062 -50.050781 75.21875 -54.875 C 72.53125 -59.695312 68.820312 -63.5 64.09375 -66.28125 C 59.363281 -69.070312 54.066406 -70.46875 48.203125 -70.46875 C 42.347656 -70.46875 37.054688 -69.070312 32.328125 -66.28125 C 27.597656 -63.5 23.863281 -59.695312 21.125 -54.875 C 18.382812 -50.050781 17.015625 -44.660156 17.015625 -38.703125 C 17.015625 -32.753906 18.382812 -27.367188 21.125 -22.546875 C 23.863281 -17.722656 27.597656 -13.941406 32.328125 -11.203125 C 37.054688 -8.460938 42.347656 -7.09375 48.203125 -7.09375 Z M 48.203125 -7.09375 "/></g></g></g></svg>
